<?xml version="1.0" standalone="no"?><svg xmlns:xlink="http://www.w3.org/1999/xlink" xmlns="http://www.w3.org/2000/svg" viewBox="0 0 2000 1000" preserveAspectRatio="xMaxYMax slice"><g transform="scale(1.7761989342806395)"><rect x="0" y="0" width="1126" height="563" fill="#ffffff"/><rect x="0" y="0" width="56.3" height="56.3" fill="#e4f4f0"/><polygon points="56.3,0 56.3,56.3 0,56.3" fill="#e2e7eb"/><rect x="112.6" y="0" width="56.3" height="56.3" fill="#bae4d9"/><polygon points="112.6,0 168.89999999999998,56.3 112.6,56.3" fill="#e7f5f1"/><rect x="225.2" y="0" width="56.3" height="56.3" fill="#d1d9e0"/><polygon points="225.2,0 281.5,0 281.5,56.3" fill="#caeae2"/><rect x="281.5" y="0" width="56.3" height="56.3" fill="#97d6c5"/><polygon points="281.5,0 337.8,0 281.5,56.3" fill="#bfc9d3"/><rect x="394.1" y="0" width="56.3" height="56.3" fill="#d6efe8"/><polygon points="394.1,0 450.40000000000003,0 394.1,56.3" fill="#748ba1"/><rect x="450.4" y="0" width="56.3" height="56.3" fill="#cfd7df"/><polygon points="450.4,0 506.7,0 506.7,56.3" fill="#9eaebd"/><rect x="506.7" y="0" width="56.3" height="56.3" fill="#d3dae1"/><polygon points="506.7,0 563,0 563,56.3" fill="#ecf7f4"/><rect x="563" y="0" width="56.3" height="56.3" fill="#92a4b5"/><polygon points="563,0 619.3,56.3 563,56.3" fill="#768ca2"/><rect x="788.2" y="0" width="56.3" height="56.3" fill="#f3faf8"/><polygon points="788.2,0 844.5,0 844.5,56.3" fill="#ebeff2"/><rect x="900.8" y="0" width="56.3" height="56.3" fill="#7b91a5"/><polygon points="900.8,0 957.0999999999999,56.3 900.8,56.3" fill="#cdece3"/><rect x="0" y="56.3" width="56.3" height="56.3" fill="#9eaebd"/><polygon points="56.3,56.3 56.3,112.6 0,112.6" fill="#b3bfcb"/><rect x="168.9" y="56.3" width="56.3" height="56.3" fill="#d2dae1"/><polygon points="225.2,56.3 225.2,112.6 168.9,112.6" fill="#d5efe8"/><rect x="225.2" y="56.3" width="56.3" height="56.3" fill="#fcfefd"/><polygon points="281.5,56.3 281.5,112.6 225.2,112.6" fill="#8599ac"/><rect x="281.5" y="56.3" width="56.3" height="56.3" fill="#abded0"/><polygon points="281.5,56.3 337.8,112.6 281.5,112.6" fill="#a0b0bf"/><rect x="337.8" y="56.3" width="56.3" height="56.3" fill="#edf0f2"/><polygon points="337.8,56.3 394.1,112.6 337.8,112.6" fill="#95d6c4"/><rect x="394.1" y="56.3" width="56.3" height="56.3" fill="#798fa4"/><polygon points="450.40000000000003,56.3 450.40000000000003,112.6 394.1,112.6" fill="#a8ddcf"/><rect x="563" y="56.3" width="56.3" height="56.3" fill="#8498ac"/><polygon points="563,56.3 619.3,56.3 619.3,112.6" fill="#d0ede5"/><rect x="675.6" y="56.3" width="56.3" height="56.3" fill="#8c9fb1"/><polygon points="731.9,56.3 731.9,112.6 675.6,112.6" fill="#b3e1d5"/><rect x="731.9" y="56.3" width="56.3" height="56.3" fill="#9dd9c9"/><polygon points="788.1999999999999,56.3 788.1999999999999,112.6 731.9,112.6" fill="#c9eae1"/><rect x="788.2" y="56.3" width="56.3" height="56.3" fill="#c4ced7"/><polygon points="788.2,56.3 844.5,56.3 788.2,112.6" fill="#e9f7f3"/><rect x="900.8" y="56.3" width="56.3" height="56.3" fill="#788ea3"/><polygon points="900.8,56.3 957.0999999999999,56.3 900.8,112.6" fill="#8398ab"/><rect x="957.1" y="56.3" width="56.3" height="56.3" fill="#8498ab"/><polygon points="957.1,56.3 1013.4,56.3 1013.4,112.6" fill="#eaf7f3"/><rect x="1069.7" y="56.3" width="56.3" height="56.3" fill="#e1e6eb"/><polygon points="1069.7,56.3 1126,56.3 1126,112.6" fill="#879bad"/><rect x="112.6" y="112.6" width="56.3" height="56.3" fill="#bbe4d9"/><polygon points="112.6,112.6 168.89999999999998,112.6 168.89999999999998,168.89999999999998" fill="#d4eee7"/><rect x="168.9" y="112.6" width="56.3" height="56.3" fill="#ddf2ec"/><polygon points="168.9,112.6 225.2,112.6 225.2,168.89999999999998" fill="#a3dbcc"/><rect x="225.2" y="112.6" width="56.3" height="56.3" fill="#ddf2ec"/><polygon points="225.2,112.6 281.5,168.89999999999998 225.2,168.89999999999998" fill="#b9e4d8"/><rect x="281.5" y="112.6" width="56.3" height="56.3" fill="#d5dce2"/><polygon points="281.5,112.6 337.8,112.6 337.8,168.89999999999998" fill="#fdfefe"/><rect x="337.8" y="112.6" width="56.3" height="56.3" fill="#a3dbcc"/><polygon points="337.8,112.6 394.1,112.6 394.1,168.89999999999998" fill="#f7f8f9"/><rect x="394.1" y="112.6" width="56.3" height="56.3" fill="#f6f8f9"/><polygon points="394.1,112.6 450.40000000000003,112.6 450.40000000000003,168.89999999999998" fill="#b8e3d8"/><rect x="450.4" y="112.6" width="56.3" height="56.3" fill="#adbac7"/><polygon points="450.4,112.6 506.7,112.6 450.4,168.89999999999998" fill="#b8e3d8"/><rect x="506.7" y="112.6" width="56.3" height="56.3" fill="#abded1"/><polygon points="563,112.6 563,168.89999999999998 506.7,168.89999999999998" fill="#d2ede6"/><rect x="563" y="112.6" width="56.3" height="56.3" fill="#7e94a8"/><polygon points="563,112.6 619.3,112.6 619.3,168.89999999999998" fill="#dcf1ec"/><rect x="619.3" y="112.6" width="56.3" height="56.3" fill="#a9b7c5"/><polygon points="619.3,112.6 675.5999999999999,168.89999999999998 619.3,168.89999999999998" fill="#caeae1"/><rect x="675.6" y="112.6" width="56.3" height="56.3" fill="#bfe6db"/><polygon points="675.6,112.6 731.9,112.6 675.6,168.89999999999998" fill="#fbfcfc"/><rect x="731.9" y="112.6" width="56.3" height="56.3" fill="#7b91a5"/><polygon points="788.1999999999999,112.6 788.1999999999999,168.89999999999998 731.9,168.89999999999998" fill="#f4fbf9"/><rect x="788.2" y="112.6" width="56.3" height="56.3" fill="#fafdfc"/><polygon points="844.5,112.6 844.5,168.89999999999998 788.2,168.89999999999998" fill="#c5cfd8"/><rect x="844.5" y="112.6" width="56.3" height="56.3" fill="#cbebe2"/><polygon points="900.8,112.6 900.8,168.89999999999998 844.5,168.89999999999998" fill="#9cd8c8"/><rect x="957.1" y="112.6" width="56.3" height="56.3" fill="#e6f5f1"/><polygon points="957.1,112.6 1013.4,112.6 1013.4,168.89999999999998" fill="#869aad"/><rect x="1013.4" y="112.6" width="56.3" height="56.3" fill="#b9e4d8"/><polygon points="1013.4,112.6 1069.7,112.6 1069.7,168.89999999999998" fill="#b6e3d7"/><rect x="56.3" y="168.9" width="56.3" height="56.3" fill="#dbe1e7"/><polygon points="56.3,168.9 112.6,168.9 56.3,225.2" fill="#95d5c4"/><rect x="168.9" y="168.9" width="56.3" height="56.3" fill="#9eaebd"/><polygon points="168.9,168.9 225.2,225.2 168.9,225.2" fill="#c2ccd5"/><rect x="225.2" y="168.9" width="56.3" height="56.3" fill="#b0e0d3"/><polygon points="225.2,168.9 281.5,168.9 225.2,225.2" fill="#91d4c2"/><rect x="281.5" y="168.9" width="56.3" height="56.3" fill="#f4fbf9"/><polygon points="337.8,168.9 337.8,225.2 281.5,225.2" fill="#e3e7ec"/><rect x="394.1" y="168.9" width="56.3" height="56.3" fill="#adbbc7"/><polygon points="394.1,168.9 450.40000000000003,168.9 450.40000000000003,225.2" fill="#f7fcfa"/><rect x="450.4" y="168.9" width="56.3" height="56.3" fill="#d5efe8"/><polygon points="450.4,168.9 506.7,225.2 450.4,225.2" fill="#f8fcfb"/><rect x="506.7" y="168.9" width="56.3" height="56.3" fill="#8196aa"/><polygon points="506.7,168.9 563,168.9 563,225.2" fill="#a9ddcf"/><rect x="563" y="168.9" width="56.3" height="56.3" fill="#95d5c4"/><polygon points="563,168.9 619.3,225.2 563,225.2" fill="#fefffe"/><rect x="675.6" y="168.9" width="56.3" height="56.3" fill="#d0d7df"/><polygon points="675.6,168.9 731.9,225.2 675.6,225.2" fill="#9cd8c8"/><rect x="788.2" y="168.9" width="56.3" height="56.3" fill="#f7f8fa"/><polygon points="788.2,168.9 844.5,168.9 788.2,225.2" fill="#94d5c4"/><rect x="844.5" y="168.9" width="56.3" height="56.3" fill="#d5dce2"/><polygon points="844.5,168.9 900.8,168.9 844.5,225.2" fill="#7b91a6"/><rect x="900.8" y="168.9" width="56.3" height="56.3" fill="#9dadbd"/><polygon points="900.8,168.9 957.0999999999999,225.2 900.8,225.2" fill="#ecf7f4"/><rect x="957.1" y="168.9" width="56.3" height="56.3" fill="#d2ede6"/><polygon points="957.1,168.9 1013.4,168.9 1013.4,225.2" fill="#94d5c4"/><rect x="1013.4" y="168.9" width="56.3" height="56.3" fill="#fafdfc"/><polygon points="1013.4,168.9 1069.7,168.9 1069.7,225.2" fill="#d3eee7"/><rect x="1069.7" y="168.9" width="56.3" height="56.3" fill="#fafdfc"/><polygon points="1126,168.9 1126,225.2 1069.7,225.2" fill="#e1e6eb"/><rect x="0" y="225.2" width="56.3" height="56.3" fill="#bce5da"/><polygon points="56.3,225.2 56.3,281.5 0,281.5" fill="#8397ab"/><rect x="112.6" y="225.2" width="56.3" height="56.3" fill="#f9fcfb"/><polygon points="168.89999999999998,225.2 168.89999999999998,281.5 112.6,281.5" fill="#fbfdfd"/><rect x="394.1" y="225.2" width="56.3" height="56.3" fill="#b6e2d6"/><polygon points="394.1,225.2 450.40000000000003,281.5 394.1,281.5" fill="#dae0e6"/><rect x="450.4" y="225.2" width="56.3" height="56.3" fill="#eaf7f3"/><polygon points="450.4,225.2 506.7,225.2 450.4,281.5" fill="#f6f8f9"/><rect x="506.7" y="225.2" width="56.3" height="56.3" fill="#a9ddcf"/><polygon points="506.7,225.2 563,225.2 506.7,281.5" fill="#dae0e6"/><rect x="563" y="225.2" width="56.3" height="56.3" fill="#ccd4dc"/><polygon points="563,225.2 619.3,281.5 563,281.5" fill="#ddf2ec"/><rect x="619.3" y="225.2" width="56.3" height="56.3" fill="#ccebe3"/><polygon points="675.5999999999999,225.2 675.5999999999999,281.5 619.3,281.5" fill="#90a3b4"/><rect x="731.9" y="225.2" width="56.3" height="56.3" fill="#a0daca"/><polygon points="731.9,225.2 788.1999999999999,225.2 788.1999999999999,281.5" fill="#f6fcfa"/><rect x="788.2" y="225.2" width="56.3" height="56.3" fill="#798fa4"/><polygon points="788.2,225.2 844.5,225.2 788.2,281.5" fill="#b1e1d4"/><rect x="900.8" y="225.2" width="56.3" height="56.3" fill="#aaded0"/><polygon points="957.0999999999999,225.2 957.0999999999999,281.5 900.8,281.5" fill="#b6c2cd"/><rect x="1013.4" y="225.2" width="56.3" height="56.3" fill="#9fdaca"/><polygon points="1069.7,225.2 1069.7,281.5 1013.4,281.5" fill="#e8ecef"/><rect x="1069.7" y="225.2" width="56.3" height="56.3" fill="#a3dbcc"/><polygon points="1069.7,225.2 1126,225.2 1126,281.5" fill="#92a4b5"/><rect x="0" y="281.5" width="56.3" height="56.3" fill="#758ca1"/><polygon points="56.3,281.5 56.3,337.8 0,337.8" fill="#a0b0bf"/><rect x="225.2" y="281.5" width="56.3" height="56.3" fill="#eceff2"/><polygon points="225.2,281.5 281.5,281.5 225.2,337.8" fill="#c1e7dd"/><rect x="281.5" y="281.5" width="56.3" height="56.3" fill="#8095a9"/><polygon points="281.5,281.5 337.8,281.5 337.8,337.8" fill="#b4c1cc"/><rect x="337.8" y="281.5" width="56.3" height="56.3" fill="#b8c4cf"/><polygon points="394.1,281.5 394.1,337.8 337.8,337.8" fill="#d7dde4"/><rect x="394.1" y="281.5" width="56.3" height="56.3" fill="#768da2"/><polygon points="394.1,281.5 450.40000000000003,337.8 394.1,337.8" fill="#91a3b4"/><rect x="450.4" y="281.5" width="56.3" height="56.3" fill="#d5efe8"/><polygon points="506.7,281.5 506.7,337.8 450.4,337.8" fill="#a1dacb"/><rect x="619.3" y="281.5" width="56.3" height="56.3" fill="#d8dfe5"/><polygon points="619.3,281.5 675.5999999999999,281.5 619.3,337.8" fill="#a5dccd"/><rect x="675.6" y="281.5" width="56.3" height="56.3" fill="#aedfd2"/><polygon points="731.9,281.5 731.9,337.8 675.6,337.8" fill="#ced6de"/><rect x="731.9" y="281.5" width="56.3" height="56.3" fill="#a6dcce"/><polygon points="788.1999999999999,281.5 788.1999999999999,337.8 731.9,337.8" fill="#d7dee4"/><rect x="844.5" y="281.5" width="56.3" height="56.3" fill="#a9ddcf"/><polygon points="844.5,281.5 900.8,281.5 844.5,337.8" fill="#a7b6c4"/><rect x="900.8" y="281.5" width="56.3" height="56.3" fill="#e0f3ee"/><polygon points="900.8,281.5 957.0999999999999,281.5 900.8,337.8" fill="#96a7b8"/><rect x="1013.4" y="281.5" width="56.3" height="56.3" fill="#abded0"/><polygon points="1013.4,281.5 1069.7,281.5 1069.7,337.8" fill="#d8dfe5"/><rect x="1069.7" y="281.5" width="56.3" height="56.3" fill="#b0e0d3"/><polygon points="1069.7,281.5 1126,281.5 1126,337.8" fill="#dee4e9"/><rect x="0" y="337.8" width="56.3" height="56.3" fill="#f6f7f9"/><polygon points="56.3,337.8 56.3,394.1 0,394.1" fill="#c2ccd5"/><rect x="168.9" y="337.8" width="56.3" height="56.3" fill="#869aad"/><polygon points="225.2,337.8 225.2,394.1 168.9,394.1" fill="#9cacbc"/><rect x="225.2" y="337.8" width="56.3" height="56.3" fill="#e3f4ef"/><polygon points="281.5,337.8 281.5,394.1 225.2,394.1" fill="#8599ac"/><rect x="337.8" y="337.8" width="56.3" height="56.3" fill="#e0e5ea"/><polygon points="394.1,337.8 394.1,394.1 337.8,394.1" fill="#b2e1d4"/><rect x="506.7" y="337.8" width="56.3" height="56.3" fill="#f0f9f7"/><polygon points="506.7,337.8 563,337.8 506.7,394.1" fill="#cdd5dd"/><rect x="563" y="337.8" width="56.3" height="56.3" fill="#c1cbd5"/><polygon points="563,337.8 619.3,394.1 563,394.1" fill="#a4dbcc"/><rect x="619.3" y="337.8" width="56.3" height="56.3" fill="#bfc9d4"/><polygon points="619.3,337.8 675.5999999999999,337.8 619.3,394.1" fill="#e1f3ef"/><rect x="675.6" y="337.8" width="56.3" height="56.3" fill="#9ed9c9"/><polygon points="675.6,337.8 731.9,394.1 675.6,394.1" fill="#ccd4dc"/><rect x="788.2" y="337.8" width="56.3" height="56.3" fill="#9aabbb"/><polygon points="788.2,337.8 844.5,394.1 788.2,394.1" fill="#d4eee7"/><rect x="844.5" y="337.8" width="56.3" height="56.3" fill="#b5c1cd"/><polygon points="844.5,337.8 900.8,337.8 900.8,394.1" fill="#ced6de"/><rect x="1069.7" y="337.8" width="56.3" height="56.3" fill="#e7f6f2"/><polygon points="1069.7,337.8 1126,394.1 1069.7,394.1" fill="#a1b0bf"/><rect x="0" y="394.1" width="56.3" height="56.3" fill="#f3faf8"/><polygon points="0,394.1 56.3,450.40000000000003 0,450.40000000000003" fill="#7f94a8"/><rect x="56.3" y="394.1" width="56.3" height="56.3" fill="#b4e2d6"/><polygon points="56.3,394.1 112.6,394.1 56.3,450.40000000000003" fill="#e0e5ea"/><rect x="168.9" y="394.1" width="56.3" height="56.3" fill="#8397ab"/><polygon points="225.2,394.1 225.2,450.40000000000003 168.9,450.40000000000003" fill="#cdebe3"/><rect x="281.5" y="394.1" width="56.3" height="56.3" fill="#d1ede6"/><polygon points="281.5,394.1 337.8,394.1 337.8,450.40000000000003" fill="#f5f7f8"/><rect x="450.4" y="394.1" width="56.3" height="56.3" fill="#cdd5dd"/><polygon points="450.4,394.1 506.7,450.40000000000003 450.4,450.40000000000003" fill="#f3faf8"/><rect x="506.7" y="394.1" width="56.3" height="56.3" fill="#e3f4f0"/><polygon points="506.7,394.1 563,394.1 563,450.40000000000003" fill="#b9c5d0"/><rect x="563" y="394.1" width="56.3" height="56.3" fill="#e7f6f2"/><polygon points="563,394.1 619.3,394.1 563,450.40000000000003" fill="#d1ede5"/><rect x="619.3" y="394.1" width="56.3" height="56.3" fill="#eaf7f3"/><polygon points="619.3,394.1 675.5999999999999,394.1 619.3,450.40000000000003" fill="#a7ddce"/><rect x="675.6" y="394.1" width="56.3" height="56.3" fill="#d5efe8"/><polygon points="675.6,394.1 731.9,394.1 675.6,450.40000000000003" fill="#9dadbc"/><rect x="731.9" y="394.1" width="56.3" height="56.3" fill="#eef8f6"/><polygon points="731.9,394.1 788.1999999999999,394.1 788.1999999999999,450.40000000000003" fill="#90a2b3"/><rect x="788.2" y="394.1" width="56.3" height="56.3" fill="#ccebe3"/><polygon points="844.5,394.1 844.5,450.40000000000003 788.2,450.40000000000003" fill="#98a9b9"/><rect x="844.5" y="394.1" width="56.3" height="56.3" fill="#adbbc8"/><polygon points="900.8,394.1 900.8,450.40000000000003 844.5,450.40000000000003" fill="#daf1eb"/><rect x="900.8" y="394.1" width="56.3" height="56.3" fill="#bbc6d1"/><polygon points="900.8,394.1 957.0999999999999,394.1 957.0999999999999,450.40000000000003" fill="#daf1eb"/><rect x="957.1" y="394.1" width="56.3" height="56.3" fill="#9ad8c7"/><polygon points="957.1,394.1 1013.4,394.1 1013.4,450.40000000000003" fill="#748ba1"/><rect x="1013.4" y="394.1" width="56.3" height="56.3" fill="#dce2e8"/><polygon points="1013.4,394.1 1069.7,394.1 1069.7,450.40000000000003" fill="#ebeef1"/><rect x="1069.7" y="394.1" width="56.3" height="56.3" fill="#aaded0"/><polygon points="1069.7,394.1 1126,450.40000000000003 1069.7,450.40000000000003" fill="#ceece4"/><rect x="56.3" y="450.4" width="56.3" height="56.3" fill="#bfe6dc"/><polygon points="56.3,450.4 112.6,450.4 56.3,506.7" fill="#a9b7c4"/><rect x="112.6" y="450.4" width="56.3" height="56.3" fill="#d6efe8"/><polygon points="112.6,450.4 168.89999999999998,450.4 168.89999999999998,506.7" fill="#f3faf8"/><rect x="225.2" y="450.4" width="56.3" height="56.3" fill="#bfe6db"/><polygon points="225.2,450.4 281.5,450.4 281.5,506.7" fill="#f1faf7"/><rect x="281.5" y="450.4" width="56.3" height="56.3" fill="#9aabbb"/><polygon points="281.5,450.4 337.8,450.4 337.8,506.7" fill="#95d5c4"/><rect x="394.1" y="450.4" width="56.3" height="56.3" fill="#ecf8f5"/><polygon points="394.1,450.4 450.40000000000003,450.4 450.40000000000003,506.7" fill="#9aabbb"/><rect x="506.7" y="450.4" width="56.3" height="56.3" fill="#dce2e7"/><polygon points="506.7,450.4 563,450.4 506.7,506.7" fill="#ccd5dd"/><rect x="563" y="450.4" width="56.3" height="56.3" fill="#d7dde4"/><polygon points="619.3,450.4 619.3,506.7 563,506.7" fill="#8599ac"/><rect x="675.6" y="450.4" width="56.3" height="56.3" fill="#c0cad4"/><polygon points="675.6,450.4 731.9,450.4 731.9,506.7" fill="#b1beca"/><rect x="731.9" y="450.4" width="56.3" height="56.3" fill="#f7fcfb"/><polygon points="788.1999999999999,450.4 788.1999999999999,506.7 731.9,506.7" fill="#dee4e9"/><rect x="788.2" y="450.4" width="56.3" height="56.3" fill="#e4f5f0"/><polygon points="788.2,450.4 844.5,450.4 844.5,506.7" fill="#8a9daf"/><rect x="844.5" y="450.4" width="56.3" height="56.3" fill="#97a8b8"/><polygon points="844.5,450.4 900.8,450.4 900.8,506.7" fill="#e9ecf0"/><rect x="900.8" y="450.4" width="56.3" height="56.3" fill="#889cae"/><polygon points="900.8,450.4 957.0999999999999,450.4 957.0999999999999,506.7" fill="#ccd4dc"/><rect x="957.1" y="450.4" width="56.3" height="56.3" fill="#eef1f3"/><polygon points="957.1,450.4 1013.4,506.7 957.1,506.7" fill="#8a9daf"/><rect x="1013.4" y="450.4" width="56.3" height="56.3" fill="#94a6b6"/><polygon points="1069.7,450.4 1069.7,506.7 1013.4,506.7" fill="#bce5da"/><rect x="0" y="506.7" width="56.3" height="56.3" fill="#c5e8df"/><polygon points="0,506.7 56.3,563 0,563" fill="#b1e0d4"/><rect x="56.3" y="506.7" width="56.3" height="56.3" fill="#748ba1"/><polygon points="112.6,506.7 112.6,563 56.3,563" fill="#c8d1da"/><rect x="112.6" y="506.7" width="56.3" height="56.3" fill="#f8fcfb"/><polygon points="112.6,506.7 168.89999999999998,506.7 168.89999999999998,563" fill="#cdece3"/><rect x="168.9" y="506.7" width="56.3" height="56.3" fill="#b3e1d5"/><polygon points="168.9,506.7 225.2,506.7 225.2,563" fill="#c7e9e0"/><rect x="394.1" y="506.7" width="56.3" height="56.3" fill="#dbe1e6"/><polygon points="394.1,506.7 450.40000000000003,563 394.1,563" fill="#d2d9e0"/><rect x="450.4" y="506.7" width="56.3" height="56.3" fill="#cad2db"/><polygon points="450.4,506.7 506.7,506.7 450.4,563" fill="#94a6b6"/><rect x="506.7" y="506.7" width="56.3" height="56.3" fill="#879bae"/><polygon points="506.7,506.7 563,563 506.7,563" fill="#c7d0d9"/><rect x="563" y="506.7" width="56.3" height="56.3" fill="#8095a9"/><polygon points="563,506.7 619.3,563 563,563" fill="#9cacbc"/><rect x="619.3" y="506.7" width="56.3" height="56.3" fill="#b9c5d0"/><polygon points="619.3,506.7 675.5999999999999,563 619.3,563" fill="#bec8d3"/><rect x="731.9" y="506.7" width="56.3" height="56.3" fill="#b5e2d6"/><polygon points="788.1999999999999,506.7 788.1999999999999,563 731.9,563" fill="#9bacbb"/><rect x="844.5" y="506.7" width="56.3" height="56.3" fill="#91a3b4"/><polygon points="900.8,506.7 900.8,563 844.5,563" fill="#d8dee4"/><rect x="900.8" y="506.7" width="56.3" height="56.3" fill="#bec8d3"/><polygon points="900.8,506.7 957.0999999999999,563 900.8,563" fill="#93a5b6"/><rect x="957.1" y="506.7" width="56.3" height="56.3" fill="#feffff"/><polygon points="957.1,506.7 1013.4,506.7 957.1,563" fill="#a4dccd"/><rect x="1013.4" y="506.7" width="56.3" height="56.3" fill="#d4eee7"/><polygon points="1013.4,506.7 1069.7,506.7 1069.7,563" fill="#a8b6c4"/></g></svg>