<?xml version="1.0" standalone="no"?><svg xmlns:xlink="http://www.w3.org/1999/xlink" xmlns="http://www.w3.org/2000/svg" viewBox="0 0 1000 500" preserveAspectRatio="xMaxYMax slice"><g transform="scale(0.8880994671403197)"><rect x="0" y="0" width="1126" height="563" fill="#0c0d0d"/><rect x="0" y="0" width="56.3" height="56.3" fill="#9987b0"/><g transform="translate(0,0) scale(2.815) rotate(0)"><path d="M10 0H20V10L10 20H0V10L10 0Z" fill="#496a79"/></g><rect x="56.3" y="0" width="56.3" height="56.3" fill="#527788"/><g transform="translate(56.3,0) scale(2.815) rotate(0)"><path d="M10 0H20V10L10 20H0V10L10 0Z" fill="#0e0f10"/></g><rect x="225.2" y="0" width="56.3" height="56.3" fill="#645973"/><g transform="translate(225.2,0) scale(2.815) rotate(0)"><path d="M10 0H20V10L10 20H0V10L10 0Z" fill="#121214"/></g><rect x="281.5" y="0" width="56.3" height="56.3" fill="#87c8e6"/><g transform="translate(281.5,0) scale(2.815) rotate(0)"><path d="M10 0H20V10L10 20H0V10L10 0Z" fill="#7fbbd7"/></g><rect x="337.8" y="0" width="56.3" height="56.3" fill="#433d4d"/><g transform="translate(337.8,0) scale(2.815) rotate(0)"><path d="M10 0H20V10L10 20H0V10L10 0Z" fill="#405c69"/></g><rect x="394.1" y="0" width="56.3" height="56.3" fill="#463f50"/><g transform="translate(394.1,0) scale(2.815) rotate(0)"><path d="M10 0H20V10L10 20H0V10L10 0Z" fill="#8e7da3"/></g><rect x="450.4" y="0" width="56.3" height="56.3" fill="#2e4149"/><g transform="translate(450.4,0) scale(2.815) rotate(0)"><path d="M10 0H20V10L10 20H0V10L10 0Z" fill="#243136"/></g><rect x="506.7" y="0" width="56.3" height="56.3" fill="#5f556d"/><g transform="translate(506.7,0) scale(2.815) rotate(0)"><path d="M10 0H20V10L10 20H0V10L10 0Z" fill="#4d7080"/></g><rect x="619.3" y="0" width="56.3" height="56.3" fill="#2d3f47"/><g transform="translate(619.3,0) scale(2.815) rotate(0)"><path d="M10 0H20V10L10 20H0V10L10 0Z" fill="#374e59"/></g><rect x="675.6" y="0" width="56.3" height="56.3" fill="#2f2b35"/><g transform="translate(675.6,0) scale(2.815) rotate(0)"><path d="M10 0H20V10L10 20H0V10L10 0Z" fill="#3a535e"/></g><rect x="731.9" y="0" width="56.3" height="56.3" fill="#1e292d"/><g transform="translate(731.9,0) scale(2.815) rotate(0)"><path d="M10 0H20V10L10 20H0V10L10 0Z" fill="#5f556d"/></g><rect x="788.2" y="0" width="56.3" height="56.3" fill="#27252d"/><g transform="translate(788.2,0) scale(2.815) rotate(0)"><path d="M10 0H20V10L10 20H0V10L10 0Z" fill="#77afc9"/></g><rect x="1013.4" y="0" width="56.3" height="56.3" fill="#7bb6d1"/><g transform="translate(1013.4,0) scale(2.815) rotate(0)"><path d="M10 0H20V10L10 20H0V10L10 0Z" fill="#756786"/></g><rect x="1069.7" y="0" width="56.3" height="56.3" fill="#1d1c21"/><g transform="translate(1069.7,0) scale(2.815) rotate(0)"><path d="M10 0H20V10L10 20H0V10L10 0Z" fill="#706481"/></g><rect x="0" y="56.3" width="56.3" height="56.3" fill="#342f3b"/><g transform="translate(0,56.3) scale(2.815) rotate(0)"><path d="M10 0H20V10L10 20H0V10L10 0Z" fill="#37333f"/></g><rect x="56.3" y="56.3" width="56.3" height="56.3" fill="#b8a2d4"/><g transform="translate(56.3,56.3) scale(2.815) rotate(0)"><path d="M10 0H20V10L10 20H0V10L10 0Z" fill="#474051"/></g><rect x="112.6" y="56.3" width="56.3" height="56.3" fill="#2b3b43"/><g transform="translate(112.6,56.3) scale(2.815) rotate(0)"><path d="M10 0H20V10L10 20H0V10L10 0Z" fill="#ab97c5"/></g><rect x="168.9" y="56.3" width="56.3" height="56.3" fill="#3a525e"/><g transform="translate(168.9,56.3) scale(2.815) rotate(0)"><path d="M10 0H20V10L10 20H0V10L10 0Z" fill="#817294"/></g><rect x="281.5" y="56.3" width="56.3" height="56.3" fill="#1a2226"/><g transform="translate(281.5,56.3) scale(2.815) rotate(0)"><path d="M10 0H20V10L10 20H0V10L10 0Z" fill="#9e8bb6"/></g><rect x="337.8" y="56.3" width="56.3" height="56.3" fill="#2a2730"/><g transform="translate(337.8,56.3) scale(2.815) rotate(0)"><path d="M10 0H20V10L10 20H0V10L10 0Z" fill="#685d78"/></g><rect x="394.1" y="56.3" width="56.3" height="56.3" fill="#1c1b1f"/><g transform="translate(394.1,56.3) scale(2.815) rotate(0)"><path d="M10 0H20V10L10 20H0V10L10 0Z" fill="#7fbcd8"/></g><rect x="450.4" y="56.3" width="56.3" height="56.3" fill="#2c3e46"/><g transform="translate(450.4,56.3) scale(2.815) rotate(0)"><path d="M10 0H20V10L10 20H0V10L10 0Z" fill="#243136"/></g><rect x="563" y="56.3" width="56.3" height="56.3" fill="#0f1010"/><g transform="translate(563,56.3) scale(2.815) rotate(0)"><path d="M10 0H20V10L10 20H0V10L10 0Z" fill="#ae99c9"/></g><rect x="731.9" y="56.3" width="56.3" height="56.3" fill="#655a74"/><g transform="translate(731.9,56.3) scale(2.815) rotate(0)"><path d="M10 0H20V10L10 20H0V10L10 0Z" fill="#161c1e"/></g><rect x="788.2" y="56.3" width="56.3" height="56.3" fill="#9382a9"/><g transform="translate(788.2,56.3) scale(2.815) rotate(0)"><path d="M10 0H20V10L10 20H0V10L10 0Z" fill="#2d3f47"/></g><rect x="844.5" y="56.3" width="56.3" height="56.3" fill="#1d272c"/><g transform="translate(844.5,56.3) scale(2.815) rotate(0)"><path d="M10 0H20V10L10 20H0V10L10 0Z" fill="#6391a6"/></g><rect x="1069.7" y="56.3" width="56.3" height="56.3" fill="#2d2a34"/><g transform="translate(1069.7,56.3) scale(2.815) rotate(0)"><path d="M10 0H20V10L10 20H0V10L10 0Z" fill="#a894c1"/></g><rect x="0" y="112.6" width="56.3" height="56.3" fill="#a490bc"/><g transform="translate(0,112.6) scale(2.815) rotate(0)"><path d="M10 0H20V10L10 20H0V10L10 0Z" fill="#79b2cc"/></g><rect x="112.6" y="112.6" width="56.3" height="56.3" fill="#2a3b42"/><g transform="translate(112.6,112.6) scale(2.815) rotate(0)"><path d="M10 0H20V10L10 20H0V10L10 0Z" fill="#776988"/></g><rect x="168.9" y="112.6" width="56.3" height="56.3" fill="#413b4b"/><g transform="translate(168.9,112.6) scale(2.815) rotate(0)"><path d="M10 0H20V10L10 20H0V10L10 0Z" fill="#3c3745"/></g><rect x="225.2" y="112.6" width="56.3" height="56.3" fill="#86c6e3"/><g transform="translate(225.2,112.6) scale(2.815) rotate(0)"><path d="M10 0H20V10L10 20H0V10L10 0Z" fill="#161c1e"/></g><rect x="281.5" y="112.6" width="56.3" height="56.3" fill="#6798ae"/><g transform="translate(281.5,112.6) scale(2.815) rotate(0)"><path d="M10 0H20V10L10 20H0V10L10 0Z" fill="#28252e"/></g><rect x="337.8" y="112.6" width="56.3" height="56.3" fill="#6899af"/><g transform="translate(337.8,112.6) scale(2.815) rotate(0)"><path d="M10 0H20V10L10 20H0V10L10 0Z" fill="#6e627e"/></g><rect x="394.1" y="112.6" width="56.3" height="56.3" fill="#86c6e4"/><g transform="translate(394.1,112.6) scale(2.815) rotate(0)"><path d="M10 0H20V10L10 20H0V10L10 0Z" fill="#35303c"/></g><rect x="506.7" y="112.6" width="56.3" height="56.3" fill="#6290a5"/><g transform="translate(506.7,112.6) scale(2.815) rotate(0)"><path d="M10 0H20V10L10 20H0V10L10 0Z" fill="#131819"/></g><rect x="563" y="112.6" width="56.3" height="56.3" fill="#7db9d4"/><g transform="translate(563,112.6) scale(2.815) rotate(0)"><path d="M10 0H20V10L10 20H0V10L10 0Z" fill="#564d63"/></g><rect x="619.3" y="112.6" width="56.3" height="56.3" fill="#5b5168"/><g transform="translate(619.3,112.6) scale(2.815) rotate(0)"><path d="M10 0H20V10L10 20H0V10L10 0Z" fill="#5c8699"/></g><rect x="675.6" y="112.6" width="56.3" height="56.3" fill="#53798a"/><g transform="translate(675.6,112.6) scale(2.815) rotate(0)"><path d="M10 0H20V10L10 20H0V10L10 0Z" fill="#2b3b43"/></g><rect x="731.9" y="112.6" width="56.3" height="56.3" fill="#6ea1b9"/><g transform="translate(731.9,112.6) scale(2.815) rotate(0)"><path d="M10 0H20V10L10 20H0V10L10 0Z" fill="#1f1e23"/></g><rect x="788.2" y="112.6" width="56.3" height="56.3" fill="#7ab4ce"/><g transform="translate(788.2,112.6) scale(2.815) rotate(0)"><path d="M10 0H20V10L10 20H0V10L10 0Z" fill="#5f8b9f"/></g><rect x="900.8" y="112.6" width="56.3" height="56.3" fill="#b49ecf"/><g transform="translate(900.8,112.6) scale(2.815) rotate(0)"><path d="M10 0H20V10L10 20H0V10L10 0Z" fill="#a692bf"/></g><rect x="957.1" y="112.6" width="56.3" height="56.3" fill="#6e627e"/><g transform="translate(957.1,112.6) scale(2.815) rotate(0)"><path d="M10 0H20V10L10 20H0V10L10 0Z" fill="#ccb3ea"/></g><rect x="56.3" y="168.9" width="56.3" height="56.3" fill="#9a88b1"/><g transform="translate(56.3,168.9) scale(2.815) rotate(0)"><path d="M10 0H20V10L10 20H0V10L10 0Z" fill="#4d7080"/></g><rect x="112.6" y="168.9" width="56.3" height="56.3" fill="#3c3644"/><g transform="translate(112.6,168.9) scale(2.815) rotate(0)"><path d="M10 0H20V10L10 20H0V10L10 0Z" fill="#1c1a1f"/></g><rect x="225.2" y="168.9" width="56.3" height="56.3" fill="#3c3644"/><g transform="translate(225.2,168.9) scale(2.815) rotate(0)"><path d="M10 0H20V10L10 20H0V10L10 0Z" fill="#5f8b9f"/></g><rect x="281.5" y="168.9" width="56.3" height="56.3" fill="#1a2225"/><g transform="translate(281.5,168.9) scale(2.815) rotate(0)"><path d="M10 0H20V10L10 20H0V10L10 0Z" fill="#645972"/></g><rect x="337.8" y="168.9" width="56.3" height="56.3" fill="#95dcfd"/><g transform="translate(337.8,168.9) scale(2.815) rotate(0)"><path d="M10 0H20V10L10 20H0V10L10 0Z" fill="#2f424b"/></g><rect x="394.1" y="168.9" width="56.3" height="56.3" fill="#101012"/><g transform="translate(394.1,168.9) scale(2.815) rotate(0)"><path d="M10 0H20V10L10 20H0V10L10 0Z" fill="#bca5d8"/></g><rect x="506.7" y="168.9" width="56.3" height="56.3" fill="#86c6e3"/><g transform="translate(506.7,168.9) scale(2.815) rotate(0)"><path d="M10 0H20V10L10 20H0V10L10 0Z" fill="#302c37"/></g><rect x="563" y="168.9" width="56.3" height="56.3" fill="#1c1b20"/><g transform="translate(563,168.9) scale(2.815) rotate(0)"><path d="M10 0H20V10L10 20H0V10L10 0Z" fill="#8c7ca1"/></g><rect x="731.9" y="168.9" width="56.3" height="56.3" fill="#0f1213"/><g transform="translate(731.9,168.9) scale(2.815) rotate(0)"><path d="M10 0H20V10L10 20H0V10L10 0Z" fill="#7ebad6"/></g><rect x="788.2" y="168.9" width="56.3" height="56.3" fill="#415d6a"/><g transform="translate(788.2,168.9) scale(2.815) rotate(0)"><path d="M10 0H20V10L10 20H0V10L10 0Z" fill="#cab2e9"/></g><rect x="900.8" y="168.9" width="56.3" height="56.3" fill="#bfa8dc"/><g transform="translate(900.8,168.9) scale(2.815) rotate(0)"><path d="M10 0H20V10L10 20H0V10L10 0Z" fill="#70a5bd"/></g><rect x="1013.4" y="168.9" width="56.3" height="56.3" fill="#111415"/><g transform="translate(1013.4,168.9) scale(2.815) rotate(0)"><path d="M10 0H20V10L10 20H0V10L10 0Z" fill="#9684ac"/></g><rect x="1069.7" y="168.9" width="56.3" height="56.3" fill="#796b8a"/><g transform="translate(1069.7,168.9) scale(2.815) rotate(0)"><path d="M10 0H20V10L10 20H0V10L10 0Z" fill="#71a6be"/></g><rect x="0" y="225.2" width="56.3" height="56.3" fill="#d4baf4"/><g transform="translate(0,225.2) scale(2.815) rotate(0)"><path d="M10 0H20V10L10 20H0V10L10 0Z" fill="#44626f"/></g><rect x="56.3" y="225.2" width="56.3" height="56.3" fill="#18171a"/><g transform="translate(56.3,225.2) scale(2.815) rotate(0)"><path d="M10 0H20V10L10 20H0V10L10 0Z" fill="#28383f"/></g><rect x="225.2" y="225.2" width="56.3" height="56.3" fill="#574e63"/><g transform="translate(225.2,225.2) scale(2.815) rotate(0)"><path d="M10 0H20V10L10 20H0V10L10 0Z" fill="#4e7181"/></g><rect x="394.1" y="225.2" width="56.3" height="56.3" fill="#393340"/><g transform="translate(394.1,225.2) scale(2.815) rotate(0)"><path d="M10 0H20V10L10 20H0V10L10 0Z" fill="#82c0dd"/></g><rect x="619.3" y="225.2" width="56.3" height="56.3" fill="#8fd4f4"/><g transform="translate(619.3,225.2) scale(2.815) rotate(0)"><path d="M10 0H20V10L10 20H0V10L10 0Z" fill="#433d4d"/></g><rect x="731.9" y="225.2" width="56.3" height="56.3" fill="#8dd1f0"/><g transform="translate(731.9,225.2) scale(2.815) rotate(0)"><path d="M10 0H20V10L10 20H0V10L10 0Z" fill="#2b2730"/></g><rect x="788.2" y="225.2" width="56.3" height="56.3" fill="#51485c"/><g transform="translate(788.2,225.2) scale(2.815) rotate(0)"><path d="M10 0H20V10L10 20H0V10L10 0Z" fill="#83c1de"/></g><rect x="844.5" y="225.2" width="56.3" height="56.3" fill="#ad98c6"/><g transform="translate(844.5,225.2) scale(2.815) rotate(0)"><path d="M10 0H20V10L10 20H0V10L10 0Z" fill="#d6bbf6"/></g><rect x="1013.4" y="225.2" width="56.3" height="56.3" fill="#111416"/><g transform="translate(1013.4,225.2) scale(2.815) rotate(0)"><path d="M10 0H20V10L10 20H0V10L10 0Z" fill="#2e2a34"/></g><rect x="1069.7" y="225.2" width="56.3" height="56.3" fill="#5e899d"/><g transform="translate(1069.7,225.2) scale(2.815) rotate(0)"><path d="M10 0H20V10L10 20H0V10L10 0Z" fill="#476775"/></g><rect x="0" y="281.5" width="56.3" height="56.3" fill="#4f7384"/><g transform="translate(0,281.5) scale(2.815) rotate(0)"><path d="M10 0H20V10L10 20H0V10L10 0Z" fill="#78b0ca"/></g><rect x="56.3" y="281.5" width="56.3" height="56.3" fill="#807293"/><g transform="translate(56.3,281.5) scale(2.815) rotate(0)"><path d="M10 0H20V10L10 20H0V10L10 0Z" fill="#3a525d"/></g><rect x="168.9" y="281.5" width="56.3" height="56.3" fill="#b7a1d2"/><g transform="translate(168.9,281.5) scale(2.815) rotate(0)"><path d="M10 0H20V10L10 20H0V10L10 0Z" fill="#141417"/></g><rect x="281.5" y="281.5" width="56.3" height="56.3" fill="#3b3643"/><g transform="translate(281.5,281.5) scale(2.815) rotate(0)"><path d="M10 0H20V10L10 20H0V10L10 0Z" fill="#9180a7"/></g><rect x="337.8" y="281.5" width="56.3" height="56.3" fill="#507484"/><g transform="translate(337.8,281.5) scale(2.815) rotate(0)"><path d="M10 0H20V10L10 20H0V10L10 0Z" fill="#293940"/></g><rect x="450.4" y="281.5" width="56.3" height="56.3" fill="#598295"/><g transform="translate(450.4,281.5) scale(2.815) rotate(0)"><path d="M10 0H20V10L10 20H0V10L10 0Z" fill="#6d617d"/></g><rect x="506.7" y="281.5" width="56.3" height="56.3" fill="#131719"/><g transform="translate(506.7,281.5) scale(2.815) rotate(0)"><path d="M10 0H20V10L10 20H0V10L10 0Z" fill="#2c3d45"/></g><rect x="619.3" y="281.5" width="56.3" height="56.3" fill="#85c5e3"/><g transform="translate(619.3,281.5) scale(2.815) rotate(0)"><path d="M10 0H20V10L10 20H0V10L10 0Z" fill="#37323f"/></g><rect x="675.6" y="281.5" width="56.3" height="56.3" fill="#30434c"/><g transform="translate(675.6,281.5) scale(2.815) rotate(0)"><path d="M10 0H20V10L10 20H0V10L10 0Z" fill="#131316"/></g><rect x="844.5" y="281.5" width="56.3" height="56.3" fill="#5c879a"/><g transform="translate(844.5,281.5) scale(2.815) rotate(0)"><path d="M10 0H20V10L10 20H0V10L10 0Z" fill="#425e6b"/></g><rect x="957.1" y="281.5" width="56.3" height="56.3" fill="#13181a"/><g transform="translate(957.1,281.5) scale(2.815) rotate(0)"><path d="M10 0H20V10L10 20H0V10L10 0Z" fill="#29383f"/></g><rect x="56.3" y="337.8" width="56.3" height="56.3" fill="#af9ac9"/><g transform="translate(56.3,337.8) scale(2.815) rotate(0)"><path d="M10 0H20V10L10 20H0V10L10 0Z" fill="#2c3d45"/></g><rect x="112.6" y="337.8" width="56.3" height="56.3" fill="#b49ecf"/><g transform="translate(112.6,337.8) scale(2.815) rotate(0)"><path d="M10 0H20V10L10 20H0V10L10 0Z" fill="#39515c"/></g><rect x="168.9" y="337.8" width="56.3" height="56.3" fill="#26343a"/><g transform="translate(168.9,337.8) scale(2.815) rotate(0)"><path d="M10 0H20V10L10 20H0V10L10 0Z" fill="#b59fd0"/></g><rect x="281.5" y="337.8" width="56.3" height="56.3" fill="#8e7da3"/><g transform="translate(281.5,337.8) scale(2.815) rotate(0)"><path d="M10 0H20V10L10 20H0V10L10 0Z" fill="#d7bcf7"/></g><rect x="394.1" y="337.8" width="56.3" height="56.3" fill="#6492a7"/><g transform="translate(394.1,337.8) scale(2.815) rotate(0)"><path d="M10 0H20V10L10 20H0V10L10 0Z" fill="#675c76"/></g><rect x="506.7" y="337.8" width="56.3" height="56.3" fill="#8cd0ef"/><g transform="translate(506.7,337.8) scale(2.815) rotate(0)"><path d="M10 0H20V10L10 20H0V10L10 0Z" fill="#796b8b"/></g><rect x="675.6" y="337.8" width="56.3" height="56.3" fill="#3d5762"/><g transform="translate(675.6,337.8) scale(2.815) rotate(0)"><path d="M10 0H20V10L10 20H0V10L10 0Z" fill="#5b8598"/></g><rect x="731.9" y="337.8" width="56.3" height="56.3" fill="#89ccea"/><g transform="translate(731.9,337.8) scale(2.815) rotate(0)"><path d="M10 0H20V10L10 20H0V10L10 0Z" fill="#665b75"/></g><rect x="844.5" y="337.8" width="56.3" height="56.3" fill="#18171b"/><g transform="translate(844.5,337.8) scale(2.815) rotate(0)"><path d="M10 0H20V10L10 20H0V10L10 0Z" fill="#9c89b3"/></g><rect x="900.8" y="337.8" width="56.3" height="56.3" fill="#85c4e1"/><g transform="translate(900.8,337.8) scale(2.815) rotate(0)"><path d="M10 0H20V10L10 20H0V10L10 0Z" fill="#202c31"/></g><rect x="957.1" y="337.8" width="56.3" height="56.3" fill="#74abc4"/><g transform="translate(957.1,337.8) scale(2.815) rotate(0)"><path d="M10 0H20V10L10 20H0V10L10 0Z" fill="#405c68"/></g><rect x="1013.4" y="337.8" width="56.3" height="56.3" fill="#a693bf"/><g transform="translate(1013.4,337.8) scale(2.815) rotate(0)"><path d="M10 0H20V10L10 20H0V10L10 0Z" fill="#82c0dd"/></g><rect x="0" y="394.1" width="56.3" height="56.3" fill="#0f1011"/><g transform="translate(0,394.1) scale(2.815) rotate(0)"><path d="M10 0H20V10L10 20H0V10L10 0Z" fill="#c7aee5"/></g><rect x="56.3" y="394.1" width="56.3" height="56.3" fill="#857699"/><g transform="translate(56.3,394.1) scale(2.815) rotate(0)"><path d="M10 0H20V10L10 20H0V10L10 0Z" fill="#4a6c7b"/></g><rect x="168.9" y="394.1" width="56.3" height="56.3" fill="#5c8699"/><g transform="translate(168.9,394.1) scale(2.815) rotate(0)"><path d="M10 0H20V10L10 20H0V10L10 0Z" fill="#ceb4ed"/></g><rect x="225.2" y="394.1" width="56.3" height="56.3" fill="#c5ade2"/><g transform="translate(225.2,394.1) scale(2.815) rotate(0)"><path d="M10 0H20V10L10 20H0V10L10 0Z" fill="#243238"/></g><rect x="394.1" y="394.1" width="56.3" height="56.3" fill="#30444c"/><g transform="translate(394.1,394.1) scale(2.815) rotate(0)"><path d="M10 0H20V10L10 20H0V10L10 0Z" fill="#c2abe0"/></g><rect x="450.4" y="394.1" width="56.3" height="56.3" fill="#4d4558"/><g transform="translate(450.4,394.1) scale(2.815) rotate(0)"><path d="M10 0H20V10L10 20H0V10L10 0Z" fill="#111112"/></g><rect x="506.7" y="394.1" width="56.3" height="56.3" fill="#6b5f7a"/><g transform="translate(506.7,394.1) scale(2.815) rotate(0)"><path d="M10 0H20V10L10 20H0V10L10 0Z" fill="#28383f"/></g><rect x="563" y="394.1" width="56.3" height="56.3" fill="#685d78"/><g transform="translate(563,394.1) scale(2.815) rotate(0)"><path d="M10 0H20V10L10 20H0V10L10 0Z" fill="#90d5f5"/></g><rect x="619.3" y="394.1" width="56.3" height="56.3" fill="#74acc5"/><g transform="translate(619.3,394.1) scale(2.815) rotate(0)"><path d="M10 0H20V10L10 20H0V10L10 0Z" fill="#76aec7"/></g><rect x="788.2" y="394.1" width="56.3" height="56.3" fill="#7a6d8d"/><g transform="translate(788.2,394.1) scale(2.815) rotate(0)"><path d="M10 0H20V10L10 20H0V10L10 0Z" fill="#1f2a2f"/></g><rect x="900.8" y="394.1" width="56.3" height="56.3" fill="#5f8a9e"/><g transform="translate(900.8,394.1) scale(2.815) rotate(0)"><path d="M10 0H20V10L10 20H0V10L10 0Z" fill="#1e1d22"/></g><rect x="1069.7" y="394.1" width="56.3" height="56.3" fill="#4d7080"/><g transform="translate(1069.7,394.1) scale(2.815) rotate(0)"><path d="M10 0H20V10L10 20H0V10L10 0Z" fill="#534a5f"/></g><rect x="112.6" y="450.4" width="56.3" height="56.3" fill="#a18eb9"/><g transform="translate(112.6,450.4) scale(2.815) rotate(0)"><path d="M10 0H20V10L10 20H0V10L10 0Z" fill="#161618"/></g><rect x="168.9" y="450.4" width="56.3" height="56.3" fill="#8a7a9f"/><g transform="translate(168.9,450.4) scale(2.815) rotate(0)"><path d="M10 0H20V10L10 20H0V10L10 0Z" fill="#c2aadf"/></g><rect x="225.2" y="450.4" width="56.3" height="56.3" fill="#83c2df"/><g transform="translate(225.2,450.4) scale(2.815) rotate(0)"><path d="M10 0H20V10L10 20H0V10L10 0Z" fill="#77afc9"/></g><rect x="281.5" y="450.4" width="56.3" height="56.3" fill="#28383f"/><g transform="translate(281.5,450.4) scale(2.815) rotate(0)"><path d="M10 0H20V10L10 20H0V10L10 0Z" fill="#bfa8db"/></g><rect x="337.8" y="450.4" width="56.3" height="56.3" fill="#6a9cb3"/><g transform="translate(337.8,450.4) scale(2.815) rotate(0)"><path d="M10 0H20V10L10 20H0V10L10 0Z" fill="#466573"/></g><rect x="394.1" y="450.4" width="56.3" height="56.3" fill="#c5ade3"/><g transform="translate(394.1,450.4) scale(2.815) rotate(0)"><path d="M10 0H20V10L10 20H0V10L10 0Z" fill="#91d8f8"/></g><rect x="450.4" y="450.4" width="56.3" height="56.3" fill="#608da1"/><g transform="translate(450.4,450.4) scale(2.815) rotate(0)"><path d="M10 0H20V10L10 20H0V10L10 0Z" fill="#c0a9dd"/></g><rect x="506.7" y="450.4" width="56.3" height="56.3" fill="#d4baf4"/><g transform="translate(506.7,450.4) scale(2.815) rotate(0)"><path d="M10 0H20V10L10 20H0V10L10 0Z" fill="#4c6f7e"/></g><rect x="563" y="450.4" width="56.3" height="56.3" fill="#595066"/><g transform="translate(563,450.4) scale(2.815) rotate(0)"><path d="M10 0H20V10L10 20H0V10L10 0Z" fill="#655a73"/></g><rect x="619.3" y="450.4" width="56.3" height="56.3" fill="#584f65"/><g transform="translate(619.3,450.4) scale(2.815) rotate(0)"><path d="M10 0H20V10L10 20H0V10L10 0Z" fill="#7d6f90"/></g><rect x="675.6" y="450.4" width="56.3" height="56.3" fill="#5a8396"/><g transform="translate(675.6,450.4) scale(2.815) rotate(0)"><path d="M10 0H20V10L10 20H0V10L10 0Z" fill="#35303c"/></g><rect x="788.2" y="450.4" width="56.3" height="56.3" fill="#524a5e"/><g transform="translate(788.2,450.4) scale(2.815) rotate(0)"><path d="M10 0H20V10L10 20H0V10L10 0Z" fill="#6da0b7"/></g><rect x="844.5" y="450.4" width="56.3" height="56.3" fill="#14191b"/><g transform="translate(844.5,450.4) scale(2.815) rotate(0)"><path d="M10 0H20V10L10 20H0V10L10 0Z" fill="#161518"/></g><rect x="900.8" y="450.4" width="56.3" height="56.3" fill="#91d8f8"/><g transform="translate(900.8,450.4) scale(2.815) rotate(0)"><path d="M10 0H20V10L10 20H0V10L10 0Z" fill="#a28fba"/></g><rect x="957.1" y="450.4" width="56.3" height="56.3" fill="#6b9db4"/><g transform="translate(957.1,450.4) scale(2.815) rotate(0)"><path d="M10 0H20V10L10 20H0V10L10 0Z" fill="#324750"/></g><rect x="1013.4" y="450.4" width="56.3" height="56.3" fill="#645972"/><g transform="translate(1013.4,450.4) scale(2.815) rotate(0)"><path d="M10 0H20V10L10 20H0V10L10 0Z" fill="#32464f"/></g><rect x="0" y="506.7" width="56.3" height="56.3" fill="#413a4a"/><g transform="translate(0,506.7) scale(2.815) rotate(0)"><path d="M10 0H20V10L10 20H0V10L10 0Z" fill="#a08db8"/></g><rect x="112.6" y="506.7" width="56.3" height="56.3" fill="#d5bbf5"/><g transform="translate(112.6,506.7) scale(2.815) rotate(0)"><path d="M10 0H20V10L10 20H0V10L10 0Z" fill="#534a5f"/></g><rect x="225.2" y="506.7" width="56.3" height="56.3" fill="#baa3d6"/><g transform="translate(225.2,506.7) scale(2.815) rotate(0)"><path d="M10 0H20V10L10 20H0V10L10 0Z" fill="#b7a1d3"/></g><rect x="281.5" y="506.7" width="56.3" height="56.3" fill="#7cb7d2"/><g transform="translate(281.5,506.7) scale(2.815) rotate(0)"><path d="M10 0H20V10L10 20H0V10L10 0Z" fill="#1b2327"/></g><rect x="337.8" y="506.7" width="56.3" height="56.3" fill="#9c8ab4"/><g transform="translate(337.8,506.7) scale(2.815) rotate(0)"><path d="M10 0H20V10L10 20H0V10L10 0Z" fill="#476674"/></g><rect x="394.1" y="506.7" width="56.3" height="56.3" fill="#8c7ca1"/><g transform="translate(394.1,506.7) scale(2.815) rotate(0)"><path d="M10 0H20V10L10 20H0V10L10 0Z" fill="#5c8699"/></g><rect x="450.4" y="506.7" width="56.3" height="56.3" fill="#b59fd0"/><g transform="translate(450.4,506.7) scale(2.815) rotate(0)"><path d="M10 0H20V10L10 20H0V10L10 0Z" fill="#aa95c3"/></g><rect x="506.7" y="506.7" width="56.3" height="56.3" fill="#50485c"/><g transform="translate(506.7,506.7) scale(2.815) rotate(0)"><path d="M10 0H20V10L10 20H0V10L10 0Z" fill="#18171b"/></g><rect x="563" y="506.7" width="56.3" height="56.3" fill="#26353b"/><g transform="translate(563,506.7) scale(2.815) rotate(0)"><path d="M10 0H20V10L10 20H0V10L10 0Z" fill="#1d262a"/></g><rect x="619.3" y="506.7" width="56.3" height="56.3" fill="#201f25"/><g transform="translate(619.3,506.7) scale(2.815) rotate(0)"><path d="M10 0H20V10L10 20H0V10L10 0Z" fill="#9b89b3"/></g><rect x="675.6" y="506.7" width="56.3" height="56.3" fill="#a08db8"/><g transform="translate(675.6,506.7) scale(2.815) rotate(0)"><path d="M10 0H20V10L10 20H0V10L10 0Z" fill="#73aac3"/></g><rect x="731.9" y="506.7" width="56.3" height="56.3" fill="#161c1e"/><g transform="translate(731.9,506.7) scale(2.815) rotate(0)"><path d="M10 0H20V10L10 20H0V10L10 0Z" fill="#332f3a"/></g><rect x="788.2" y="506.7" width="56.3" height="56.3" fill="#233136"/><g transform="translate(788.2,506.7) scale(2.815) rotate(0)"><path d="M10 0H20V10L10 20H0V10L10 0Z" fill="#736684"/></g><rect x="844.5" y="506.7" width="56.3" height="56.3" fill="#d2b8f1"/><g transform="translate(844.5,506.7) scale(2.815) rotate(0)"><path d="M10 0H20V10L10 20H0V10L10 0Z" fill="#374e58"/></g><rect x="957.1" y="506.7" width="56.3" height="56.3" fill="#9e8bb6"/><g transform="translate(957.1,506.7) scale(2.815) rotate(0)"><path d="M10 0H20V10L10 20H0V10L10 0Z" fill="#a591bd"/></g><rect x="1013.4" y="506.7" width="56.3" height="56.3" fill="#564d63"/><g transform="translate(1013.4,506.7) scale(2.815) rotate(0)"><path d="M10 0H20V10L10 20H0V10L10 0Z" fill="#81bfdb"/></g><rect x="1069.7" y="506.7" width="56.3" height="56.3" fill="#645973"/><g transform="translate(1069.7,506.7) scale(2.815) rotate(0)"><path d="M10 0H20V10L10 20H0V10L10 0Z" fill="#8dd2f1"/></g></g></svg>